<?xml version="1.0" encoding="UTF-8" standalone="no"?>
<!DOCTYPE svg PUBLIC "-//W3C//DTD SVG 1.1//EN" "http://www.w3.org/Graphics/SVG/1.1/DTD/svg11.dtd">
<svg width="100%" height="100%" viewBox="0 0 273 115" version="1.1" xmlns="http://www.w3.org/2000/svg" xmlns:xlink="http://www.w3.org/1999/xlink" xml:space="preserve" xmlns:serif="http://www.serif.com/" style="fill-rule:evenodd;clip-rule:evenodd;stroke-linejoin:round;stroke-miterlimit:2;">
    <path d="M163.59,38.806C157.605,38.806 153.148,41.745 153.148,48.818C153.148,54.147 156.085,57.846 163.268,57.846C169.356,57.846 173.49,54.259 173.49,48.598C173.49,42.182 169.79,38.806 163.59,38.806L163.59,38.806ZM151.62,88.746C150.204,90.484 148.793,92.331 148.793,94.511C148.793,98.859 154.338,100.167 161.955,100.167C168.265,100.167 176.86,99.726 176.86,93.859C176.86,90.372 172.725,90.156 167.5,89.829L151.62,88.746L151.62,88.746ZM183.821,39.135C185.776,41.638 187.846,45.12 187.846,50.124C187.846,62.199 178.381,69.27 164.677,69.27C161.192,69.27 158.037,68.836 156.081,68.293L152.49,74.058L163.15,74.709C181.972,75.908 193.065,76.453 193.065,90.917C193.065,103.431 182.08,110.498 163.15,110.498C143.46,110.498 135.954,105.493 135.954,96.9C135.954,92.002 138.13,89.397 141.937,85.802C138.346,84.284 137.151,81.566 137.151,78.627C137.151,76.232 138.346,74.057 140.307,71.989C142.265,69.924 144.44,67.854 147.051,65.461C141.721,62.851 137.695,57.194 137.695,49.142C137.695,36.633 145.964,28.042 162.605,28.042C167.284,28.042 170.114,28.473 172.616,29.13L193.831,29.13L193.831,38.374L183.821,39.136" style="fill:rgb(223,221,213);fill-rule:nonzero;"/>
    <path d="M212.98,19.366C206.778,19.366 203.189,15.773 203.189,9.57C203.189,3.374 206.778,-0.001 212.98,-0.001C219.29,-0.001 222.88,3.374 222.88,9.57C222.88,15.773 219.29,19.366 212.98,19.366ZM198.944,84.742L198.944,76.152L204.494,75.393C206.018,75.172 206.234,74.848 206.234,73.213L206.234,41.23C206.234,40.035 205.909,39.271 204.818,38.947L198.944,36.878L200.14,28.069L222.661,28.069L222.661,73.213C222.661,74.957 222.766,75.173 224.402,75.394L229.951,76.153L229.951,84.743L198.943,84.743" style="fill:rgb(223,221,213);fill-rule:nonzero;"/>
    <path d="M272.97,80.526C268.29,82.808 261.438,84.875 255.234,84.875C242.289,84.875 237.395,79.658 237.395,67.36L237.395,38.86C237.395,38.209 237.395,37.772 236.521,37.772L228.907,37.772L228.907,28.09C238.484,26.999 242.288,22.212 243.485,10.354L253.821,10.354L253.821,25.807C253.821,26.566 253.821,26.895 254.693,26.895L270.031,26.895L270.031,37.772L253.822,37.772L253.822,63.77C253.822,70.19 255.347,72.69 261.218,72.69C264.268,72.69 267.419,71.931 270.03,70.951L272.97,80.527" style="fill:rgb(223,221,213);fill-rule:nonzero;"/>
    <path d="M111.78,51.977L62.035,2.238C59.173,-0.627 54.527,-0.627 51.661,2.238L41.332,12.568L54.434,25.67C57.48,24.642 60.971,25.331 63.398,27.759C65.837,30.201 66.522,33.722 65.468,36.778L78.096,49.406C81.151,48.353 84.676,49.033 87.115,51.477C90.526,54.887 90.526,60.412 87.115,63.822C83.704,67.234 78.179,67.234 74.766,63.822C72.202,61.256 71.567,57.488 72.866,54.328L61.089,42.551L61.088,73.542C61.92,73.954 62.704,74.503 63.397,75.193C66.807,78.602 66.807,84.126 63.397,87.541C59.987,90.95 54.459,90.95 51.052,87.541C47.642,84.126 47.642,78.602 51.052,75.193C51.895,74.352 52.87,73.715 53.911,73.288L53.911,42.009C52.87,41.584 51.896,40.952 51.052,40.104C48.469,37.523 47.847,33.732 49.171,30.56L36.255,17.642L2.149,51.747C-0.716,54.614 -0.716,59.26 2.149,62.125L51.891,111.864C54.755,114.729 59.4,114.729 62.267,111.864L111.779,62.36C114.644,59.494 114.644,54.847 111.779,51.981" style="fill:rgb(240,81,51);fill-rule:nonzero;"/>
</svg>
