<?xml version="1.0" encoding="UTF-8" standalone="no"?>
<!DOCTYPE svg PUBLIC "-//W3C//DTD SVG 1.1//EN" "http://www.w3.org/Graphics/SVG/1.1/DTD/svg11.dtd">
<svg width="100%" height="100%" viewBox="0 0 450 95" version="1.1" xmlns="http://www.w3.org/2000/svg" xmlns:xlink="http://www.w3.org/1999/xlink" xml:space="preserve" xmlns:serif="http://www.serif.com/" style="fill-rule:evenodd;clip-rule:evenodd;stroke-linejoin:round;stroke-miterlimit:2;">
    <g id="watermark_1_">
    </g>
    <g transform="matrix(1,0,0,1,-25,-202.639)">
        <path d="M402.528,204.677L402.528,219.144L371.435,219.144L371.435,295.255L355.887,295.255L355.887,219.144L324.146,219.144L324.146,204.677L402.528,204.677ZM406.023,286.625C407.118,286.625 408.077,287.02 408.887,287.808C409.709,288.597 410.119,289.542 410.131,290.642C410.12,291.389 409.93,292.074 409.551,292.687C409.162,293.31 408.667,293.798 408.045,294.151C407.434,294.514 406.76,294.701 406.023,294.701C404.884,294.701 403.916,294.307 403.105,293.518C402.294,292.729 401.893,291.774 401.903,290.643C401.893,289.543 402.294,288.598 403.105,287.809C403.916,287.02 404.885,286.625 406.023,286.625ZM97.876,295.254L40.547,224L40.547,295.217L25,295.217L25,204.639L44.433,204.639L116.86,294.576L116.861,219.144L116.854,204.677L195.236,204.677L195.236,219.144L132.407,219.144L132.407,242.417L182.934,242.417L182.934,256.884L132.407,256.884L132.407,280.787L195.236,280.787L195.236,295.254L97.876,295.254ZM245.065,256.746L255.254,269.414L234.376,295.361L213.972,295.361L245.065,256.746ZM234.376,204.714L260.682,237.383L286.905,204.815L307.252,204.784L270.868,250.035L307.31,295.293L286.905,295.293L214.03,204.715L234.376,204.715L234.376,204.714ZM432.557,256.543L439.447,256.543L439.447,283.085C439.437,285.524 438.909,287.611 437.878,289.365C436.835,291.119 435.392,292.458 433.538,293.403C431.695,294.337 429.535,294.815 427.08,294.815C424.836,294.815 422.824,294.41 421.034,293.621C419.243,292.832 417.821,291.649 416.778,290.092C415.724,288.535 415.208,286.594 415.208,284.269L422.109,284.269C422.119,285.286 422.351,286.168 422.793,286.906C423.235,287.643 423.846,288.203 424.626,288.598C425.415,288.993 426.322,289.19 427.343,289.19C428.45,289.19 429.398,288.962 430.166,288.494C430.935,288.037 431.525,287.352 431.936,286.439C432.336,285.536 432.547,284.415 432.557,283.086L432.557,256.543ZM467.794,266.924C467.626,265.315 466.888,264.059 465.603,263.166C464.307,262.263 462.632,261.817 460.578,261.817C459.135,261.817 457.893,262.035 456.86,262.461C455.827,262.897 455.027,263.478 454.479,264.215C453.932,264.952 453.658,265.793 453.636,266.738C453.636,267.527 453.826,268.212 454.195,268.783C454.564,269.364 455.058,269.852 455.701,270.247C456.333,270.652 457.038,270.984 457.808,271.254C458.587,271.524 459.367,271.752 460.146,271.939L463.738,272.821C465.182,273.153 466.583,273.6 467.92,274.17C469.257,274.731 470.469,275.447 471.533,276.308C472.597,277.17 473.44,278.208 474.062,279.422C474.683,280.636 475,282.059 475,283.699C475,285.91 474.431,287.851 473.282,289.533C472.134,291.204 470.48,292.512 468.31,293.457C466.15,294.391 463.538,294.869 460.462,294.869C457.491,294.869 454.9,294.412 452.719,293.499C450.528,292.596 448.821,291.267 447.589,289.523C446.357,287.779 445.693,285.651 445.598,283.15L452.425,283.15C452.52,284.458 452.941,285.548 453.657,286.43C454.383,287.302 455.331,287.946 456.491,288.381C457.661,288.807 458.966,289.025 460.41,289.025C461.916,289.025 463.244,288.797 464.391,288.35C465.529,287.904 466.424,287.281 467.067,286.471C467.72,285.672 468.047,284.727 468.057,283.648C468.047,282.662 467.751,281.842 467.182,281.198C466.603,280.555 465.802,280.015 464.78,279.579C463.749,279.143 462.547,278.749 461.178,278.406L456.817,277.306C453.667,276.507 451.17,275.292 449.347,273.663C447.515,272.033 446.608,269.874 446.608,267.165C446.608,264.944 447.219,262.992 448.453,261.321C449.674,259.65 451.349,258.352 453.467,257.428C455.595,256.494 457.997,256.037 460.672,256.037C463.39,256.037 465.77,256.494 467.825,257.428C469.879,258.352 471.491,259.639 472.66,261.279C473.83,262.919 474.441,264.798 474.473,266.926L467.794,266.926L467.794,266.924Z" style="fill-rule:nonzero;"/>
    </g>
</svg>
