<?xml version="1.0" encoding="UTF-8" standalone="no"?>
<!DOCTYPE svg PUBLIC "-//W3C//DTD SVG 1.1//EN" "http://www.w3.org/Graphics/SVG/1.1/DTD/svg11.dtd">
<svg width="100%" height="100%" viewBox="0 0 110 40" version="1.1" xmlns="http://www.w3.org/2000/svg" xmlns:xlink="http://www.w3.org/1999/xlink" xml:space="preserve" xmlns:serif="http://www.serif.com/" style="fill-rule:evenodd;clip-rule:evenodd;stroke-linejoin:round;stroke-miterlimit:2;">
    <g id="path893" transform="matrix(1,0,0,1,-6.386104,-10.402571)">
        <path d="M43.483,11.952L51.965,11.952L30.547,48.86L8.989,11.952L17.664,11.952L30.547,34.172L43.483,11.952Z" style="fill:rgb(65,184,131);"/>
    </g>
    <g id="path895" transform="matrix(1,0,0,1,-6.386104,-10.402571)">
        <path d="M35.467,11.945L43.534,11.945L30.536,34.21L17.642,11.945L25.583,11.945L30.536,20.517L35.467,11.945Z" style="fill:rgb(53,73,94);"/>
    </g>
    <g id="path897" transform="matrix(1,0,0,1,-6.386104,-10.402571)">
        <path d="M57.026,19.231C57.026,18.959 57.177,18.732 57.48,18.55C57.782,18.369 58.098,18.278 58.428,18.278C58.886,18.278 59.17,18.451 59.279,18.796L64.116,34.969L68.925,18.796C69.053,18.451 69.328,18.278 69.75,18.278C70.098,18.278 70.423,18.378 70.725,18.578C71.027,18.777 71.179,19.004 71.179,19.258C71.179,19.277 71.174,19.304 71.165,19.34C71.156,19.376 71.151,19.413 71.151,19.449L65.573,37.555C65.371,38.082 64.886,38.345 64.116,38.345C63.347,38.345 62.879,38.082 62.715,37.555L57.081,19.449C57.045,19.34 57.026,19.267 57.026,19.231L57.026,19.231ZM71.395,33.171L71.395,26.092C71.395,25.875 71.51,25.684 71.739,25.521C71.968,25.357 72.238,25.276 72.549,25.276C72.842,25.276 73.104,25.362 73.333,25.534C73.562,25.707 73.676,25.893 73.676,26.092L73.676,33.171C73.676,33.988 73.987,34.723 74.61,35.377C75.233,36.03 75.975,36.357 76.836,36.357C77.679,36.357 78.412,36.035 79.035,35.39C79.658,34.746 79.969,34.006 79.969,33.171L79.969,26.065C79.969,25.865 80.084,25.684 80.313,25.52C80.542,25.357 80.812,25.275 81.123,25.275C81.453,25.275 81.723,25.352 81.934,25.507C82.145,25.661 82.25,25.847 82.25,26.065L82.25,33.171C82.25,34.569 81.714,35.79 80.642,36.834C79.571,37.877 78.302,38.399 76.836,38.399C75.352,38.399 74.075,37.877 73.003,36.834C71.931,35.79 71.395,34.569 71.395,33.171L71.395,33.171ZM84.115,33.117L84.115,30.258C84.115,28.86 84.651,27.653 85.723,26.637C86.794,25.62 88.081,25.112 89.584,25.112C91.013,25.112 92.249,25.589 93.293,26.542C94.338,27.495 94.86,28.688 94.86,30.122C94.86,30.648 94.796,31.07 94.668,31.388C94.539,31.706 94.342,31.933 94.077,32.069C93.811,32.205 93.564,32.291 93.335,32.327C93.106,32.364 92.799,32.382 92.414,32.382L86.396,32.382L86.396,33.199C86.396,34.197 86.758,34.996 87.481,35.595C88.205,36.194 89.144,36.493 90.298,36.493C90.903,36.493 91.429,36.403 91.878,36.221C92.327,36.039 92.689,35.863 92.964,35.69C93.238,35.518 93.458,35.431 93.623,35.431C93.88,35.431 94.099,35.545 94.283,35.772C94.466,35.999 94.557,36.23 94.557,36.466C94.557,36.884 94.141,37.31 93.307,37.746C92.474,38.181 91.443,38.399 90.216,38.399C88.42,38.399 86.955,37.914 85.819,36.943C84.683,35.971 84.115,34.696 84.115,33.117L84.115,33.117ZM86.396,30.857L91.48,30.857C91.956,30.857 92.277,30.798 92.442,30.68C92.607,30.562 92.689,30.331 92.689,29.986C92.689,29.169 92.387,28.452 91.782,27.835C91.177,27.218 90.436,26.909 89.556,26.909C88.695,26.909 87.953,27.195 87.33,27.767C86.707,28.339 86.396,29.042 86.396,29.877L86.396,30.857ZM96.011,36.929C96.011,36.529 96.148,36.189 96.423,35.908C96.698,35.626 97.037,35.486 97.44,35.486C97.824,35.486 98.154,35.626 98.429,35.908C98.704,36.189 98.841,36.529 98.841,36.929C98.841,37.31 98.704,37.641 98.429,37.923C98.154,38.204 97.824,38.345 97.44,38.345C97.037,38.345 96.698,38.204 96.423,37.923C96.148,37.641 96.011,37.31 96.011,36.929ZM98.041,43.436C98.041,43.146 98.132,42.905 98.316,42.715C98.499,42.524 98.719,42.429 98.975,42.429C99.69,42.429 100.157,42.166 100.377,41.639C100.597,41.113 100.706,40.323 100.706,39.27L100.706,26.065C100.706,25.829 100.812,25.638 101.023,25.493C101.233,25.348 101.503,25.275 101.833,25.275C102.163,25.275 102.438,25.348 102.658,25.493C102.877,25.638 102.987,25.829 102.987,26.065L102.987,39.27C102.987,40.85 102.676,42.102 102.053,43.028C101.43,43.954 100.487,44.416 99.223,44.416C98.435,44.416 98.041,44.09 98.041,43.436L98.041,43.436ZM100.404,20.429C100.404,20.084 100.542,19.785 100.816,19.53C101.091,19.276 101.43,19.149 101.833,19.149C102.218,19.149 102.548,19.276 102.822,19.53C103.097,19.785 103.235,20.084 103.235,20.429C103.235,20.774 103.097,21.078 102.822,21.341C102.548,21.604 102.218,21.736 101.833,21.736C101.448,21.736 101.114,21.604 100.83,21.341C100.546,21.078 100.404,20.774 100.404,20.429L100.404,20.429ZM104.688,36.33C104.688,36.094 104.766,35.862 104.921,35.635C105.077,35.408 105.265,35.295 105.485,35.295C105.631,35.295 105.842,35.404 106.117,35.622C106.391,35.84 106.785,36.053 107.298,36.262C107.811,36.47 108.416,36.575 109.112,36.575C110.028,36.575 110.692,36.411 111.104,36.085C111.517,35.758 111.723,35.349 111.723,34.859C111.723,34.26 111.494,33.784 111.036,33.43C110.578,33.076 110.019,32.808 109.359,32.627C108.7,32.445 108.04,32.245 107.381,32.028C106.721,31.81 106.162,31.447 105.704,30.939C105.246,30.43 105.017,29.759 105.017,28.924C105.017,27.889 105.388,26.995 106.13,26.242C106.872,25.489 108.004,25.112 109.524,25.112C110.495,25.112 111.384,25.262 112.19,25.561C112.996,25.861 113.399,26.201 113.399,26.582C113.399,26.8 113.312,27.045 113.138,27.317C112.964,27.59 112.749,27.726 112.492,27.726C112.419,27.726 112.066,27.594 111.434,27.331C110.802,27.068 110.175,26.936 109.552,26.936C108.709,26.936 108.081,27.131 107.669,27.522C107.257,27.912 107.051,28.352 107.051,28.842C107.051,29.35 107.28,29.75 107.738,30.04C108.196,30.33 108.759,30.557 109.428,30.721C110.097,30.884 110.761,31.084 111.42,31.32C112.08,31.556 112.639,31.96 113.097,32.531C113.555,33.103 113.784,33.843 113.784,34.75C113.784,35.876 113.381,36.765 112.575,37.419C111.768,38.072 110.642,38.399 109.194,38.399C107.949,38.399 106.886,38.177 106.007,37.732C105.127,37.287 104.688,36.82 104.688,36.33L104.688,36.33Z" style="fill:rgb(1,1,1);"/>
    </g>
</svg>
